HIERARCHY
ROOT Hips
{
	OFFSET 0.000000 0.000000 0.000000
	CHANNELS 6 Xposition Yposition Zposition Zrotation Yrotation Xrotation 
	JOINT LowerBack
	{
		OFFSET 0.000000 0.000000 0.000000
		CHANNELS 3 Zrotation Yrotation Xrotation
		JOINT Spine
		{
			OFFSET 0.028270 2.035590 -0.193380
			CHANNELS 3 Zrotation Yrotation Xrotation
			JOINT Spine1
			{
				OFFSET 0.056720 2.048850 -0.042750
				CHANNELS 3 Zrotation Yrotation Xrotation
				JOINT Neck
				{
					OFFSET 0.000000 0.000000 0.000000
					CHANNELS 3 Zrotation Yrotation Xrotation
					JOINT Neck1
					{
						OFFSET -0.054170 1.746240 0.172020
						CHANNELS 3 Zrotation Yrotation Xrotation
						JOINT Head
						{
							OFFSET 0.104070 1.761360 -0.123970
							CHANNELS 3 Zrotation Yrotation Xrotation
							End Site
							{
								OFFSET 0.000000 0.000000 0.000000
							}
						}
					}
				}
				JOINT LeftShoulder
				{
					OFFSET 0.000000 0.000000 0.000000
					CHANNELS 3 Zrotation Yrotation Xrotation
					JOINT LeftArm
					{
						OFFSET 3.362410 1.200890 -0.311210
						CHANNELS 3 Zrotation Yrotation Xrotation
						JOINT LeftForeArm
						{
							OFFSET 4.983000 -0.000000 -0.000000
							CHANNELS 3 Zrotation Yrotation Xrotation
							JOINT LeftHand
							{
								OFFSET 3.483560 -0.000000 -0.000000
								CHANNELS 3 Zrotation Yrotation Xrotation
								JOINT LeftFingerBase
								{
									OFFSET 0.000000 0.000000 0.000000
									CHANNELS 3 Zrotation Yrotation Xrotation
									JOINT LeftHandIndex1
									{
										OFFSET 0.715260 -0.000000 -0.000000
										CHANNELS 3 Zrotation Yrotation Xrotation
										End Site
										{
											OFFSET 0.000000 0.000000 0.000000
										}
									}
								}
								JOINT LThumb
								{
									OFFSET 0.000000 0.000000 0.000000
									CHANNELS 3 Zrotation Yrotation Xrotation
									End Site
									{
										OFFSET 0.000000 0.000000 0.000000
									}
								}
							}
						}
					}
				}
				JOINT RightShoulder
				{
					OFFSET 0.000000 0.000000 0.000000
					CHANNELS 3 Zrotation Yrotation Xrotation
					JOINT RightArm
					{
						OFFSET -3.136600 1.374050 -0.404650
						CHANNELS 3 Zrotation Yrotation Xrotation
						JOINT RightForeArm
						{
							OFFSET -5.241900 -0.000000 -0.000000
							CHANNELS 3 Zrotation Yrotation Xrotation
							JOINT RightHand
							{
								OFFSET -3.444170 -0.000000 -0.000000
								CHANNELS 3 Zrotation Yrotation Xrotation
								JOINT RightFingerBase
								{
									OFFSET 0.000000 0.000000 0.000000
									CHANNELS 3 Zrotation Yrotation Xrotation
									JOINT RightHandIndex1
									{
										OFFSET -0.622530 -0.000000 -0.000000
										CHANNELS 3 Zrotation Yrotation Xrotation
										End Site
										{
											OFFSET 0.000000 0.000000 0.000000
										}
									}
								}
								JOINT RThumb
								{
									OFFSET 0.000000 0.000000 0.000000
									CHANNELS 3 Zrotation Yrotation Xrotation
									End Site
									{
										OFFSET 0.000000 0.000000 0.000000
									}
								}
							}
						}
					}
				}
			}
		}
	}
}
}
MOTION
Frames: 12
Frame Time: 0.008333
1.708583 17.301571 -0.120175 169.364075 -57.442195 -153.710942 -3.897617 -0.762384 -7.330242 -1.650842 -0.743334 -3.783181 -7.260476 -0.703079 1.983338 8.384116 -12.977976 -8.490664 -2.240197 -0.167486 -0.196101 0.000000 0.000000 0.000000 -1.749167 18.612745 1.969314 -64.749440 9.673147 -9.820558 -3.515536 -29.769143 0.018086 9.749124 -3.754867 -0.318674 -0.115796 -0.053722 -0.000000 0.000000 0.000000 0.000000 0.000000 0.000000 0.000000 4.274606 -7.389965 -4.778045 81.884594 17.244112 18.238115 -179.416686 72.589544 179.891212 -10.017762 12.273677 -1.164017 0.114744 -0.810929 -0.000000 0.000000 0.000000 0.000000 0.000000 0.000000 0.000000 
1.728070 17.300654 -0.122976 169.095707 -56.756004 -153.572232 -4.034291 -0.671259 -7.191977 -1.679720 -0.635839 -3.760947 -7.220397 -0.596006 1.967700 8.218413 -12.892956 -8.496709 -2.226501 -0.166053 -0.202653 0.000000 0.000000 0.000000 -1.871601 18.828404 1.984093 -64.958760 9.852530 -9.973287 -3.508074 -29.721645 0.018195 9.686590 -3.720830 -0.313587 -0.114428 -0.055803 -0.000000 0.000000 0.000000 0.000000 0.000000 0.000000 0.000000 4.031990 -7.243009 -4.797328 81.866394 17.524166 18.499096 -179.403424 72.325096 179.890658 -10.011796 12.223470 -1.159136 0.114989 -0.814030 -0.000000 0.000000 0.000000 0.000000 0.000000 0.000000 0.000000 
1.746614 17.299608 -0.124507 168.847197 -56.046214 -153.467103 -4.165750 -0.571629 -7.050023 -1.708639 -0.520399 -3.738772 -7.180508 -0.480918 1.953292 8.051842 -12.806830 -8.500745 -2.214443 -0.164792 -0.208758 0.000000 0.000000 0.000000 -1.989643 19.056442 1.995661 -65.185915 10.025787 -10.131372 -3.499481 -29.683398 0.018309 9.613451 -3.695092 -0.308800 -0.113065 -0.057882 -0.000000 0.000000 0.000000 0.000000 0.000000 0.000000 0.000000 3.797937 -7.091191 -4.818366 81.835308 17.810298 18.740389 -179.389929 72.063135 179.890088 -10.009844 12.173869 -1.154754 0.115317 -0.817028 -0.000000 0.000000 0.000000 0.000000 0.000000 0.000000 0.000000 
1.764189 17.298578 -0.125258 168.619217 -55.310792 -153.387860 -4.296031 -0.463456 -6.914093 -1.738639 -0.396982 -3.718045 -7.142167 -0.357825 1.942482 7.889758 -12.720246 -8.503675 -2.204504 -0.163741 -0.214555 0.000000 0.000000 0.000000 -2.096409 19.302207 2.003366 -65.429879 10.187199 -10.301104 -3.490269 -29.644898 0.018419 9.534184 -3.675217 -0.304412 -0.111731 -0.059923 -0.000000 0.000000 0.000000 0.000000 0.000000 0.000000 0.000000 3.580968 -6.935352 -4.841172 81.793376 18.102424 18.966080 -179.376519 71.806370 179.889539 -10.009790 12.127541 -1.150870 0.115748 -0.819957 -0.000000 0.000000 0.000000 0.000000 0.000000 0.000000 0.000000 
1.780782 17.297619 -0.125774 168.412163 -54.550231 -153.325697 -4.428109 -0.347860 -6.792723 -1.770417 -0.266777 -3.700270 -7.106707 -0.228006 1.935969 7.736852 -12.632634 -8.505015 -2.197158 -0.162959 -0.219778 0.000000 0.000000 0.000000 -2.186522 19.562637 2.007360 -65.689149 10.342502 -10.491324 -3.480524 -29.607194 0.018521 9.452075 -3.656691 -0.300023 -0.110439 -0.061912 -0.000000 0.000000 0.000000 0.000000 0.000000 0.000000 0.000000 3.387487 -6.775496 -4.865116 81.743450 18.400320 19.180147 -179.363610 71.555975 179.889052 -10.008258 12.086727 -1.147379 0.116259 -0.822873 -0.000000 0.000000 0.000000 0.000000 0.000000 0.000000 0.000000 
1.796509 17.296790 -0.126409 168.219784 -53.765420 -153.268818 -4.568427 -0.227100 -6.692730 -1.805214 -0.131682 -3.686367 -7.075075 -0.093422 1.935106 7.597524 -12.543977 -8.505563 -2.192810 -0.162473 -0.224570 0.000000 0.000000 0.000000 -2.255626 19.839256 2.007913 -65.960744 10.491324 -10.705646 -3.470640 -29.568260 0.018606 9.370106 -3.636089 -0.295534 -0.109206 -0.063826 -0.000000 0.000000 0.000000 0.000000 0.000000 0.000000 0.000000 3.224620 -6.612475 -4.889848 81.689122 18.706756 19.388444 -179.351804 71.316124 179.888668 -10.002351 12.054081 -1.144182 0.116847 -0.825824 -0.000000 0.000000 0.000000 0.000000 0.000000 0.000000 0.000000 
1.811462 17.296167 -0.127573 168.036852 -52.960135 -153.206607 -4.721122 -0.104387 -6.618252 -1.843608 0.005346 -3.676903 -7.047602 0.042891 1.940404 7.474209 -12.454052 -8.505678 -2.191622 -0.162290 -0.228971 0.000000 0.000000 0.000000 -2.302096 20.129750 2.005806 -66.241874 10.637294 -10.946468 -3.460796 -29.530569 0.018669 9.289967 -3.610297 -0.290744 -0.108041 -0.065648 -0.000000 0.000000 0.000000 0.000000 0.000000 0.000000 0.000000 3.096004 -6.447536 -4.914813 81.634650 19.024830 19.597326 -179.341781 71.091218 179.888433 -9.988317 12.031381 -1.140880 0.117471 -0.828829 -0.000000 0.000000 0.000000 0.000000 0.000000 0.000000 0.000000 
1.825943 17.295800 -0.129495 167.849618 -52.137386 -153.126024 -4.894147 0.016256 -6.570028 -1.886812 0.141059 -3.671674 -7.024182 0.177652 1.952465 7.368830 -12.363257 -8.506665 -2.193652 -0.162388 -0.233362 0.000000 0.000000 0.000000 -2.325933 20.434454 2.001993 -66.527629 10.778587 -11.210629 -3.451456 -29.493086 0.018708 9.212557 -3.577598 -0.285454 -0.106947 -0.067365 -0.000000 0.000000 0.000000 0.000000 0.000000 0.000000 0.000000 3.005121 -6.282549 -4.939635 81.584840 19.359940 19.813297 -179.334302 70.886201 179.888383 -9.963280 12.019712 -1.137271 0.118110 -0.831904 -0.000000 0.000000 0.000000 0.000000 0.000000 0.000000 0.000000 
1.840251 17.295734 -0.132323 167.650380 -51.306029 -153.020804 -5.089938 0.130298 -6.545868 -1.934795 0.271282 -3.670306 -7.004307 0.306639 1.970079 7.280483 -12.271508 -8.508612 -2.198922 -0.162759 -0.237792 0.000000 0.000000 0.000000 -2.330293 20.745734 1.997939 -66.813029 10.921498 -11.495514 -3.442738 -29.461072 0.018718 9.136486 -3.536403 -0.279664 -0.105910 -0.068985 -0.000000 0.000000 0.000000 0.000000 0.000000 0.000000 0.000000 2.951356 -6.119232 -4.963569 81.544766 19.715474 20.041690 -179.330033 70.706202 179.888549 -9.924405 12.019578 -1.133156 0.118697 -0.835039 -0.000000 0.000000 0.000000 0.000000 0.000000 0.000000 0.000000 
1.854666 17.296027 -0.136096 167.427792 -50.473654 -152.884166 -5.313311 0.233200 -6.540738 -1.987962 0.392199 -3.671672 -6.987092 0.426049 1.992745 7.207452 -12.179678 -8.512776 -2.207235 -0.163348 -0.242713 0.000000 0.000000 0.000000 -2.319300 21.060781 1.994953 -67.091901 11.062579 -11.792319 -3.435156 -29.431500 0.018696 9.059970 -3.487305 -0.273273 -0.104918 -0.070504 -0.000000 0.000000 0.000000 0.000000 0.000000 0.000000 0.000000 2.933191 -5.960326 -4.986299 81.520110 20.095257 20.287425 -179.329557 70.556662 179.888950 -9.870042 12.030518 -1.128338 0.119191 -0.838199 -0.000000 0.000000 0.000000 0.000000 0.000000 0.000000 0.000000 
1.869514 17.296818 -0.140806 167.171971 -49.650449 -152.711475 -5.566564 0.320565 -6.548100 -2.046177 0.499941 -3.674614 -6.971502 0.532022 2.018775 7.146504 -12.088196 -8.519469 -2.218452 -0.164124 -0.248328 0.000000 0.000000 0.000000 -2.299249 21.371833 1.994463 -67.357835 11.201903 -12.093048 -3.429010 -29.403247 0.018646 8.980743 -3.431521 -0.266283 -0.103933 -0.071937 -0.000000 0.000000 0.000000 0.000000 0.000000 0.000000 0.000000 2.946745 -5.808091 -5.007366 81.515669 20.500972 20.552811 -179.333202 70.440415 179.889588 -9.799630 12.051167 -1.122417 0.119552 -0.841343 -0.000000 0.000000 0.000000 0.000000 0.000000 0.000000 0.000000 
1.885217 17.298186 -0.146405 166.870947 -48.846176 -152.499141 -5.851808 0.388614 -6.559894 -2.109278 0.591306 -3.677665 -6.956197 0.621396 2.046506 7.093298 -11.998085 -8.529225 -2.232326 -0.165038 -0.254933 0.000000 0.000000 0.000000 -2.276380 21.672277 1.997645 -67.603989 11.334699 -12.387501 -3.424827 -29.369433 0.018563 8.896036 -3.371557 -0.258992 -0.102926 -0.073291 -0.000000 0.000000 0.000000 0.000000 0.000000 0.000000 0.000000 2.986764 -5.665167 -5.026603 81.536948 20.931832 20.838940 -179.341001 70.360343 179.890448 -9.714002 12.079979 -1.115496 0.119745 -0.844420 -0.000000 0.000000 0.000000 0.000000 0.000000 0.000000 0.000000 
